<svg version="1.2" xmlns="http://www.w3.org/2000/svg" viewBox="0 0 1024 1024" width="1024" height="1024">
	<title>ChatGPT Image 22 jun 2025, 08_24_06</title>
	<style>
		.s0 { fill: #172036 } 
		.s1 { fill: #77b3e7 } 
		.s2 { fill: #fefefd } 
	</style>
	<g id="Background">
		<path id="Path 1" class="s0" d="m277 357.5c-4.7 0.8-12.5 2.6-17.5 4-5 1.5-12.8 4.4-17.5 6.6-4.7 2.2-12.3 6.6-17 9.7-4.7 3.1-12.6 9.7-17.6 14.7-5 4.9-11.3 12.4-14.1 16.5-2.8 4.1-6.6 10.6-8.5 14.5-2 3.9-4.9 10.8-6.6 15.5-1.6 4.7-3.8 12.1-4.8 16.5-1.5 6.5-1.9 12-1.9 29 0 16.8 0.4 22.7 1.9 29.5 1 4.7 3 11.9 4.3 16 1.4 4.1 4.5 11.5 7 16.5 2.4 5 6.4 11.9 8.8 15.5 2.4 3.6 6.7 9.2 9.7 12.6 2.9 3.3 8 8.5 11.3 11.4 3.3 3 9.6 7.7 14 10.6 4.4 2.9 11.4 6.8 15.5 8.7 4.1 1.9 11.3 4.6 16 6 4.7 1.4 11.2 3.1 14.5 3.9 3.8 0.8 13.6 1.3 27 1.3 16.6 0 22.8-0.4 29.5-1.8 4.7-1 11.2-2.8 14.5-3.9 3.3-1.1 9.6-3.8 14-6 4.4-2.2 10.9-6.1 14.5-8.8 3.6-2.6 10-8.5 14.3-13.1 4.3-4.6 7.7-8.7 7.5-9-0.2-0.4-7.1-6.5-15.3-13.7l-15-13c-4.6 4.3-8.5 7.4-11.5 9.6-3 2.2-9.3 5.9-14 8.1-4.7 2.1-11.2 4.7-14.5 5.6-3.3 0.9-11 1.9-17 2.2-7 0.4-13.9 0.1-19-0.7-4.4-0.7-10.9-2.2-14.5-3.5-3.6-1.2-9.6-3.8-13.5-5.8-3.9-2-9.9-6-13.5-9-3.6-2.9-8.9-8.2-11.8-11.7-2.9-3.6-7.3-10.5-9.7-15.5-2.5-5-5.4-12.6-6.5-17-1.2-4.4-2.4-12.5-2.7-18-0.3-5.8-0.1-13.8 0.7-19 0.6-5 2.4-12.6 3.9-17 1.4-4.4 4.6-11.4 7.1-15.5 2.4-4.1 7.2-10.4 10.5-13.9 3.3-3.5 8.7-8.3 12-10.7 3.3-2.3 9.4-5.8 13.5-7.7 4.1-2 10.4-4.3 14-5.2 3.6-0.9 10.2-2.1 14.8-2.6 5.1-0.6 11.4-0.5 16.9 0.1 4.9 0.5 11.5 1.7 14.8 2.5 3.3 0.9 10 3.5 15 5.9 5 2.3 12 6.6 15.8 9.4l6.7 5.2c24.4-21.8 31.6-28.4 31.8-28.8 0.2-0.4-2.8-3.6-6.5-7.2-3.7-3.6-9.7-8.5-13.3-11-3.6-2.4-10.5-6.3-15.5-8.6-5-2.4-12.4-5.2-16.5-6.4-4.1-1.1-11.8-2.7-17-3.5-5.6-0.9-15.9-1.5-25-1.4-8.5 0.1-19.3 0.7-24 1.4zm218.5-0.5c-3.3 0.5-8.9 1.6-12.5 2.5-3.6 0.9-10.5 3.7-15.5 6.1-5 2.4-11.8 6.7-15.3 9.4-3.4 2.8-8.7 8-11.7 11.8-3.1 3.7-7.5 10.5-9.9 15.2-2.4 4.7-5.5 12.1-6.9 16.5-1.4 4.4-2.7 9.9-3.1 12.3l-0.6 4.2c43.9 0 44 0 44.7-2.2 0.4-1.3 2.5-5.9 4.7-10.3 2.5-5.1 5.9-9.9 9.3-13.2 2.9-2.9 8.1-6.7 11.5-8.3 3.5-1.7 9.2-3.5 12.8-4.2 4.9-0.8 8.3-0.8 14 0.1 4.1 0.7 9.7 2.2 12.5 3.4 2.7 1.3 7.2 4.3 9.9 6.7 2.6 2.5 6 6.8 7.4 9.5 1.9 3.8 2.6 7 3 13 0.3 6.6 0 9.1-1.9 14-1.7 4.6-3.8 7.6-9.3 13.1-5.4 5.5-9.1 8.1-15.6 11.2-4.7 2.2-15.7 6.5-24.5 9.6-8.8 3-20.5 7.5-26 9.8-5.5 2.4-12 5.5-14.5 7-2.5 1.4-7.2 4.6-10.5 7-3.3 2.4-8.1 7.1-10.6 10.3-2.6 3.3-6.3 9.1-8.3 13-1.9 3.9-4.5 10.6-5.6 15-1.1 4.4-2.5 14.1-3 21.5-0.5 7.4-1 21.9-1 32.3 0 10.3 0.2 19.4 0.5 20.2 0.4 1.3 11.1 1.5 88 1.5h87.5v-41c-94.9-0.2-125.1-0.2-128.3-0.1l-5.7 0.1c0-7.4 0.7-12.6 1.6-16.5 0.8-3.9 2.7-9.2 4.2-11.9 1.5-2.7 4.8-6.7 7.3-9 2.5-2.3 7.6-5.8 11.5-7.8 3.8-2 13.4-5.9 21.4-8.6 8-2.7 18-6.4 22.3-8.1 4.2-1.7 11-4.7 15-6.7 3.9-2 10.1-5.6 13.7-7.9 3.6-2.3 9.9-7.8 14-12.2 5.3-5.6 8.7-10.3 11.7-16.3 2.4-4.7 5.5-13 6.9-18.5 2-7.7 2.6-12.6 2.7-21 0.1-8.8-0.3-12.5-2.2-18.5-1.2-4.1-3.9-10.6-5.9-14.5-2.5-4.9-6.4-9.7-12.7-16.1-8-8.1-10.2-9.7-19.5-14.1-5.8-2.8-13.2-5.8-16.5-6.6-3.3-0.9-9.8-2.1-14.5-2.7-4.7-0.5-11.2-0.9-14.5-0.9-3.3 0.1-8.7 0.5-12 0.9zm110.5 0.2c0 0.2 6.7 8.8 15 19.3l15 19v219.5c120.8-0.6 123.9-0.7 133-2.8 5.2-1.2 12.4-3.1 16-4.3 3.6-1.2 9.9-3.7 14-5.6 4.1-1.9 11.3-6 16-9 4.7-3.1 12.6-9.7 17.6-14.7 5.2-5.2 11.7-13 15-18.1 3.2-5 7.5-12.8 9.6-17.5 2-4.7 4.8-12.3 6.2-17 1.3-4.7 3.2-13.7 4.1-20 1.3-8.8 1.6-15.1 1.2-27-0.4-9.6-1.4-19.1-2.6-25-1.1-5.2-3.2-12.9-4.7-17-1.4-4.1-4.2-10.6-6.1-14.5-1.9-3.9-5.6-10.1-8.1-14-2.6-3.9-8.7-11.1-13.7-16.1-4.9-5-12.4-11.4-16.5-14.1-4.1-2.8-10.2-6.4-13.5-8-3.3-1.7-9.4-4.3-13.5-5.8-4.1-1.4-11.3-3.6-16-4.8-8.2-2-11.3-2.1-88.2-2.4-43.8-0.2-79.7-0.3-79.8-0.1z"/>
		<path id="Path 2" class="s1" d="m608 358c0 0.6 0.6 1.3 1.2 1.8q1.3 0.7 0.5-0.6c-0.5-0.9 13-1.3 66-1.5l66.8-0.2c-111.6-0.4-134.5-0.2-134.5 0.5zm-174 78.7c5.8 0.2 15.7 0.2 22 0 6.3-0.1 1.6-0.3-10.5-0.3-12.1 0-17.3 0.2-11.5 0.3zm-260.7 48.8c0 3.9 0.2 5.2 0.4 3 0.2-2.2 0.2-5.4 0-7-0.2-1.6-0.4 0.1-0.4 4zm321.6 64.3c-2 2-7.2 8.1-11.7 13.5-4.5 5.3-8 10.2-7.7 10.7 0.3 0.6 20.3 1 57 1h56.5c3.1-3.5 7.1-9 10.9-14.5 3.7-5.5 7.3-11 8-12.2l1.1-2.3h-110.6zm-247.9-167.8v5.1h43v-10h-43zm-26 16.5v4.5h34v-9h-34zm478-0.8c9.1 0.2 24.4 0.2 34 0 9.6-0.2 2.2-0.3-16.5-0.3-18.7 0-26.6 0.1-17.5 0.3zm-493.9 13.9c-1 0.4-1.4 1.8-1.3 4.9l0.2 4.5h29l-0.5-9.5c-20.1-0.4-26.6-0.2-27.4 0.1zm-11.6 18.2c-1.7 0.2-1.9 1-1.7 4.7l0.2 4.5h28v-9c-9.7-0.2-15.2-0.3-18.5-0.4-3.3-0.1-6.9 0-8 0.2zm-7.5 23.2v5l24.5-0.5 0.5-9.5h-25zm-3.6 18.5l0.1 4.5h21.5v-9h-21.7zm0.2 14.3c-0.1 0.3-0.2 2.5-0.2 4.7l0.1 4 26.5 0.5-0.5-9.5c-19.8-0.3-25.7-0.1-25.9 0.3zm1.4 22.7v4.5h20v-9h-20zm5 18v4.5h24v-9h-24zm7 18.5v5l28.5-0.5 0.5-9.5h-29zm12.2 17.7l0.3 4.8h25l0.5-9.5h-26.1zm18.8 17.7v4.5h34v-9h-34zm26 16v4.5h42v-9h-42z"/>
		<path id="Path 3" class="s2" d="m676.1 484.4l-0.1 88.6c61.6-0.1 71.3-0.5 77.5-1.7 4.4-0.8 10.9-2.6 14.5-3.9 3.6-1.4 9.6-4.4 13.5-6.6 3.9-2.3 10.2-7.4 14.1-11.2 4-4.1 9-10.5 11.7-15.1 2.6-4.4 5.8-11.4 7.1-15.5 1.4-4.1 3-10.2 3.8-13.5 0.7-3.5 1.2-12.8 1.2-22.5 0-13.7-0.4-18-2.2-25.5-1.3-5-4.2-13-6.7-18-2.4-5-6.5-11.7-9.2-15-2.6-3.2-7.7-8.3-11.3-11.2-3.6-2.9-9.6-6.8-13.5-8.7-3.9-1.9-10.1-4.4-14-5.7-6.8-2.2-8.4-2.3-46.7-2.7l-39.7-0.3z"/>
	</g>
</svg>